<svg width="9px" height="10px" viewBox="0 0 9 10" version="1.1" xmlns="http://www.w3.org/2000/svg" xmlns:xlink="http://www.w3.org/1999/xlink">
    <!-- Generator: Sketch 48.2 (47327) - http://www.bohemiancoding.com/sketch -->
    <desc>Created with Sketch.</desc>
    <defs></defs>
    <g id="Page-1" stroke="none" stroke-width="1" fill="none" fill-rule="evenodd">
        <g id="Mobile" transform="translate(-7.000000, -6.000000)" fill="#02A8F5">
            <path d="M14.0190965,8.15008154 L14.0190965,8.15008154 C13.2000107,7.61288181 12.1005241,7.84139561 11.5633243,8.6604814 C11.0962061,9.37271171 11.2013382,10.3164263 11.8137473,10.9083947 C14.962698,13.9522266 16.4397804,15.6315299 16.2450015,15.9462973 C16.0743311,16.2221049 13.7911945,16.0528497 9.75955065,16.2041251 C9.75925537,16.2041357 6.9301591,13.102077 7.13450124,11.3646847 C7.17451622,11.0244626 7.23396902,10.5878075 7.31285964,10.0547192 L7.31285722,10.0547189 C7.43648834,9.21930527 7.7508396,8.42358213 8.2315438,7.72923062 C8.43580735,7.43418284 8.58695264,7.24283108 8.68497966,7.15517535 C8.76934672,7.07973435 9.07922989,6.88584377 9.61462916,6.57350362 L9.61460509,6.57346235 C11.0722273,5.72311762 12.9432042,6.21541329 13.7935489,7.67303549 C13.8823471,7.82524933 13.957811,7.9848597 14.0190965,8.15008154 Z" id="Rectangle-6"></path>
        </g>
    </g>
</svg>
